<?xml version="1.0" encoding="utf-8"?>
<!-- Generator: Adobe Illustrator 21.0.0, SVG Export Plug-In . SVG Version: 6.00 Build 0)  -->
<svg version="1.1" id="Слой_1" xmlns="http://www.w3.org/2000/svg" xmlns:xlink="http://www.w3.org/1999/xlink" x="0px" y="0px"
	 width="48px" height="48px" viewBox="0 0 48 48" style="enable-background:new 0 0 48 48;" xml:space="preserve">
<g>
	<path d="M35.5,29.4v12.5H5.2V6.2h30.3v4.1l0,0l0-0.1l1.1-1.3l1.4-1.7l2.4-2.9C40,1.8,38,0,35.8,0H4.9C2.2,0,0,2.6,0,5.8v36.4
		C0,45.4,2.2,48,4.9,48h30.9c2.7,0,4.9-2.6,4.9-5.8v-19l-2.6,3.1L35.5,29.4z"/>
	<polygon points="38.1,13.3 36.6,11.5 35.5,12.8 19.9,31.2 19,39.2 25.8,38.2 35.5,26.8 38.1,23.7 40.7,20.6 42.5,18.5 40.7,16.3 	
		"/>
	<path d="M47.7,10.6l-4.4-5.2C43.1,5.1,42.8,5,42.6,5c-0.3,0-0.6,0.1-0.8,0.4l-1.1,1.3l-2.6,3.1l-0.3,0.4l0.3,0.4l2.6,3.1l3,3.5
		l4-4.8C48.1,11.9,48.1,11.1,47.7,10.6z"/>
</g>
</svg>
