<?xml version="1.0" encoding="utf-8"?><svg xmlns="http://www.w3.org/2000/svg" xmlns:xlink="http://www.w3.org/1999/xlink"><symbol viewBox="0 0 30 30" id="arrow" xmlns="http://www.w3.org/2000/svg"><path d="M8.196 30c-.462 0-.877-.169-1.2-.488a1.638 1.638 0 0 1 0-2.349l12.41-12.171L6.996 2.82c-.32-.313-.496-.73-.496-1.175S6.676.783 6.996.47C7.3.171 7.738 0 8.196 0c.458 0 .896.171 1.2.47l13.608 13.347a1.64 1.64 0 0 1 0 2.35L9.396 29.513a1.68 1.68 0 0 1-1.2.487z"/></symbol><symbol viewBox="0 0 48 48" id="download" xmlns="http://www.w3.org/2000/svg"><path d="M41.3 30.6v11H6.7v-11H0v14.2C0 46.6 1.5 48 3.3 48h41.3c1.8 0 3.3-1.4 3.3-3.2V30.6h-6.6zM13.8 18.4l9.5 11.2s.8.9 1.6.1c1.1-1.1 9.2-11.5 9.2-11.5s1.4-1.4-.5-1.4h-5V.8s0-.7-.9-.7h-7.6c-1.2 0-1 .8-1 .8v16.3h-5.4c-1.3-.2.1 1.2.1 1.2z"/></symbol><symbol viewBox="0 0 48 48" id="edit" xmlns="http://www.w3.org/2000/svg"><path d="M35.5 29.4v12.5H5.2V6.2h30.3v4.1-.1l1.1-1.3L38 7.2l2.4-2.9C40 1.8 38 0 35.8 0H4.9C2.2 0 0 2.6 0 5.8v36.4C0 45.4 2.2 48 4.9 48h30.9c2.7 0 4.9-2.6 4.9-5.8v-19l-2.6 3.1-2.6 3.1z"/><path d="M38.1 13.3l-1.5-1.8-1.1 1.3-15.6 18.4-.9 8 6.8-1 9.7-11.4 2.6-3.1 2.6-3.1 1.8-2.1-1.8-2.2zm9.6-2.7l-4.4-5.2c-.2-.3-.5-.4-.7-.4-.3 0-.6.1-.8.4l-1.1 1.3-2.6 3.1-.3.4.3.4 2.6 3.1 3 3.5 4-4.8c.4-.5.4-1.3 0-1.8z"/></symbol><symbol viewBox="0 0 30 30" id="point" xmlns="http://www.w3.org/2000/svg"><path d="M15 0C9.477 0 5 4.477 5 10c0 1.82.486 3.527 1.336 4.997C8.065 17.988 15 30 15 30s6.933-12.011 8.662-15A9.954 9.954 0 0 0 25 10c0-5.523-4.477-10-10-10zm0 13a4 4 0 1 1 0-8 4 4 0 0 1 0 8z"/></symbol></svg>